<?xml version="1.0" encoding="UTF-8" standalone="no" ?>
<!DOCTYPE svg PUBLIC "-//W3C//DTD SVG 1.1//EN" "http://www.w3.org/Graphics/SVG/1.1/DTD/svg11.dtd">
<svg xmlns="http://www.w3.org/2000/svg" xmlns:xlink="http://www.w3.org/1999/xlink" version="1.1" width="1080" height="1080" viewBox="0 0 1080 1080" xml:space="preserve">
<desc>Created with Fabric.js 5.2.4</desc>
<defs>
</defs>
<g transform="matrix(1 0 0 1 540 540)" id="41bad8e4-0ce0-4ba2-b0ae-fac6626f9d45"  >
</g>
<g transform="matrix(1 0 0 1 540 540)" id="ec9eaa58-3167-4119-8750-1da295537d3c"  >
<rect style="stroke: none; stroke-width: 1; stroke-dasharray: none; stroke-linecap: butt; stroke-dashoffset: 0; stroke-linejoin: miter; stroke-miterlimit: 4; fill: rgb(255,255,255); fill-rule: nonzero; opacity: 1; visibility: hidden;" vector-effect="non-scaling-stroke"  x="-540" y="-540" rx="0" ry="0" width="1080" height="1080" />
</g>
<g transform="matrix(3.61 0 0 3.61 319.52 417.78)"  >
<circle style="stroke: none; stroke-width: 1; stroke-dasharray: none; stroke-linecap: butt; stroke-dashoffset: 0; stroke-linejoin: miter; stroke-miterlimit: 4; fill: rgb(162,231,175); fill-rule: nonzero; opacity: 1;" vector-effect="non-scaling-stroke"  cx="0" cy="0" r="11" />
</g>
<g transform="matrix(3.61 0 0 3.61 401.79 509.28)"  >
<path style="stroke: none; stroke-width: 1; stroke-dasharray: none; stroke-linecap: butt; stroke-dashoffset: 0; stroke-linejoin: miter; stroke-miterlimit: 4; fill: rgb(64,170,84); fill-rule: nonzero; opacity: 1;" vector-effect="non-scaling-stroke"  transform=" translate(-111.24, -26.5)" d="M 106.056 28.726 C 106.784 31.358 108.758 32.674 111.978 32.674 C 114.05 32.674 115.618 31.974 116.682 30.574 L 121.05 33.094 C 118.978 36.09 115.926 37.588 111.894 37.588 C 108.422 37.588 105.636 36.538 103.536 34.438 C 101.436 32.338 100.386 29.692 100.386 26.5 C 100.386 23.336 101.422 20.704 103.494 18.604 C 105.566 16.476 108.226 15.412 111.474 15.412 C 114.554 15.412 117.088 16.476 119.076 18.604 C 121.092 20.732 122.1 23.364 122.1 26.5 C 122.1 27.2 122.03 27.942 121.89 28.726 L 106.056 28.726 Z M 105.972 24.526 L 116.682 24.526 C 116.374 23.098 115.73 22.034 114.75 21.334 C 113.798 20.634 112.706 20.284 111.474 20.284 C 110.018 20.284 108.814 20.662 107.862 21.418 C 106.91 22.146 106.28 23.182 105.972 24.526 Z" stroke-linecap="round" />
</g>
<g transform="matrix(3.61 0 0 3.61 192.25 504.49)"  >
<path style="stroke: none; stroke-width: 1; stroke-dasharray: none; stroke-linecap: butt; stroke-dashoffset: 0; stroke-linejoin: miter; stroke-miterlimit: 4; fill: rgb(64,170,84); fill-rule: nonzero; opacity: 1;" vector-effect="non-scaling-stroke"  transform=" translate(-38.5, -36)" d="M 24.9648 51.4 L 62.0476 51.4 C 65.1587 51.4 67.8585 49.3442 68.6108 46.41 L 76.9302 14.543 C 77.1021 13.8849 76.9525 13.1861 76.5252 12.6499 C 76.0977 12.1137 75.4403 11.8 74.744 11.8 L 15.357 11.8 L 14.0233 7.63335 C 13.1363 4.86193 10.5401 3 7.56328 3 L 2.25586 3 C 1.01002 3 0 3.98501 0 5.2 C 0 6.41499 1.00987 7.4 2.25586 7.4 L 7.56328 7.4 C 8.55556 7.4 9.4209 8.02069 9.71657 8.9444 C 10.3885 11.0436 21.3769 45.3733 22.0972 47.6236 C 19.7954 48.6785 18.1972 50.9601 18.1972 53.6 C 18.1972 57.2392 21.2332 60.1985 24.9648 60.1985 L 27.6087 60.1985 C 27.3583 60.8871 27.2207 61.6288 27.2207 62.4 C 27.2207 66.0392 30.2566 69 33.9882 69 C 37.7199 69 40.7558 66.0392 40.7558 62.4 C 40.7558 61.6288 40.6182 60.8886 40.3678 60.1985 L 50.1674 60.1985 C 49.917 60.8886 49.7794 61.6288 49.7794 62.4 C 49.7794 66.0392 52.8153 69 56.5469 69 C 60.2786 69 63.3145 66.0392 63.3145 62.4 C 63.3145 61.6288 63.1769 60.8886 62.9265 60.2 L 65.5702 60.2 C 66.816 60.2 67.826 59.215 67.826 58 C 67.826 56.785 66.816 55.8 65.5702 55.8 L 24.9648 55.8 C 23.7209 55.8 22.7089 54.8131 22.7089 53.6 C 22.7089 52.3869 23.7209 51.4 24.9648 51.4 Z M 36.2441 62.4 C 36.2441 63.6131 35.2321 64.6 33.9882 64.6 C 32.7443 64.6 31.7324 63.6131 31.7324 62.4 C 31.7324 61.1869 32.7443 60.2 33.9882 60.2 C 35.2321 60.2 36.2441 61.1869 36.2441 62.4 Z M 58.8026 62.4 C 58.8026 63.6131 57.7906 64.6 56.5468 64.6 C 55.3029 64.6 54.2909 63.6131 54.2909 62.4 C 54.2909 61.1869 55.3029 60.2 56.5468 60.2 C 57.7906 60.2 58.8026 61.1869 58.8026 62.4 Z M 51.7355 33.8 L 50.0436 47 L 40.4914 47 L 38.7995 33.8 L 51.7355 33.8 Z M 38.2355 29.4 L 36.5437 16.2 L 53.9913 16.2 L 52.2994 29.4 L 38.2355 29.4 Z M 35.9445 47 L 26.6238 47 L 22.3987 33.8 L 34.2526 33.8 L 35.9445 47 Z M 64.2361 45.3336 C 63.9846 46.3148 63.0845 47 62.0476 47 L 54.5905 47 L 56.2824 33.8 L 67.247 33.8 L 64.2361 45.3336 Z M 68.3957 29.4 L 56.8462 29.4 L 58.5381 16.2 L 71.8418 16.2 L 68.3957 29.4 Z M 31.9967 16.2 L 33.6886 29.4 L 20.9903 29.4 L 16.7652 16.2 L 31.9967 16.2 Z" stroke-linecap="round" />
</g>
<g transform="matrix(1 0 0 1 702.9 503.55)" style="" id="2408218d-2afe-4753-b768-4614c66bc717"  >
		<rect opacity="0" fill="rgb(55,55,55)" x="-271.48" y="-76.84" width="542.95" height="153.68"></rect>
		<text xml:space="preserve" font-family="Raleway" font-size="136" font-style="normal" font-weight="900" style="stroke: none; stroke-width: 1; stroke-dasharray: none; stroke-linecap: butt; stroke-dashoffset: 0; stroke-linejoin: miter; stroke-miterlimit: 4; fill: rgb(55,55,55); fill-rule: nonzero; opacity: 1; white-space: pre;" ><tspan x="-253.16" y="42.72" >Cashier</tspan></text>
</g>
</svg>